<mxfile host="65bd71144e">
    <diagram id="IyZWFe1ruSiWswfkmLsf" name="Page-1">
        <mxGraphModel dx="1418" dy="818" grid="1" gridSize="10" guides="1" tooltips="1" connect="1" arrows="1" fold="1" page="1" pageScale="1" pageWidth="827" pageHeight="1169" math="0" shadow="0">
            <root>
                <mxCell id="0"/>
                <mxCell id="1" parent="0"/>
                <mxCell id="50" style="edgeStyle=none;html=1;entryX=0.5;entryY=0;entryDx=0;entryDy=0;" parent="1" source="53" target="58" edge="1">
                    <mxGeometry relative="1" as="geometry">
                        <Array as="points">
                            <mxPoint x="200" y="339"/>
                        </Array>
                    </mxGeometry>
                </mxCell>
                <mxCell id="51" style="edgeStyle=none;html=1;entryX=0.558;entryY=-0.033;entryDx=0;entryDy=0;entryPerimeter=0;" parent="1" source="53" target="55" edge="1">
                    <mxGeometry relative="1" as="geometry"/>
                </mxCell>
                <mxCell id="52" style="edgeStyle=none;html=1;entryX=0.5;entryY=0;entryDx=0;entryDy=0;" parent="1" source="53" target="76" edge="1">
                    <mxGeometry relative="1" as="geometry">
                        <Array as="points">
                            <mxPoint x="560" y="339"/>
                        </Array>
                        <mxPoint x="620" y="379" as="targetPoint"/>
                    </mxGeometry>
                </mxCell>
                <mxCell id="53" value="Shell&lt;br&gt;localhost:8080" style="rounded=0;whiteSpace=wrap;html=1;fillColor=#60a917;fontColor=#ffffff;strokeColor=#2D7600;" parent="1" vertex="1">
                    <mxGeometry x="330" y="309" width="120" height="60" as="geometry"/>
                </mxCell>
                <mxCell id="54" style="edgeStyle=none;html=1;exitX=0.75;exitY=1;exitDx=0;exitDy=0;entryX=0.536;entryY=1.022;entryDx=0;entryDy=0;entryPerimeter=0;" parent="1" source="55" edge="1">
                    <mxGeometry relative="1" as="geometry">
                        <Array as="points">
                            <mxPoint x="410" y="629"/>
                            <mxPoint x="500" y="629"/>
                            <mxPoint x="574" y="629"/>
                        </Array>
                        <mxPoint x="573.6000000000001" y="531.2" as="targetPoint"/>
                    </mxGeometry>
                </mxCell>
                <mxCell id="55" value="Auth App&lt;br&gt;localhost:8082" style="rounded=0;whiteSpace=wrap;html=1;fillColor=#1ba1e2;fontColor=#ffffff;strokeColor=#006EAF;" parent="1" vertex="1">
                    <mxGeometry x="320" y="469" width="120" height="60" as="geometry"/>
                </mxCell>
                <mxCell id="56" style="edgeStyle=none;html=1;entryX=0.5;entryY=1;entryDx=0;entryDy=0;" parent="1" source="58" target="55" edge="1">
                    <mxGeometry relative="1" as="geometry">
                        <Array as="points">
                            <mxPoint x="200" y="629"/>
                            <mxPoint x="380" y="629"/>
                        </Array>
                    </mxGeometry>
                </mxCell>
                <mxCell id="58" value="Marketing App&lt;br&gt;localhost:8081" style="rounded=0;whiteSpace=wrap;html=1;fillColor=#1ba1e2;fontColor=#ffffff;strokeColor=#006EAF;" parent="1" vertex="1">
                    <mxGeometry x="140" y="469" width="120" height="60" as="geometry"/>
                </mxCell>
                <mxCell id="59" value="Calls" style="text;html=1;strokeColor=none;fillColor=none;align=center;verticalAlign=middle;whiteSpace=wrap;rounded=0;" parent="1" vertex="1">
                    <mxGeometry x="250" y="599" width="60" height="30" as="geometry"/>
                </mxCell>
                <mxCell id="60" value="Authenticates" style="text;html=1;strokeColor=none;fillColor=none;align=center;verticalAlign=middle;whiteSpace=wrap;rounded=0;" parent="1" vertex="1">
                    <mxGeometry x="465" y="599" width="50" height="30" as="geometry"/>
                </mxCell>
                <mxCell id="62" value="Webpack 5 w/ Module Federation&lt;br&gt;React 17" style="text;html=1;strokeColor=none;fillColor=none;align=center;verticalAlign=middle;whiteSpace=wrap;rounded=0;" parent="1" vertex="1">
                    <mxGeometry x="120" y="279" width="190" height="30" as="geometry"/>
                </mxCell>
                <mxCell id="63" value="BrowserRouter" style="ellipse;whiteSpace=wrap;html=1;fillColor=#e3c800;fontColor=#000000;strokeColor=#B09500;" parent="1" vertex="1">
                    <mxGeometry x="330" y="269" width="120" height="50" as="geometry"/>
                </mxCell>
                <mxCell id="64" value="MemoryRouter" style="ellipse;whiteSpace=wrap;html=1;fillColor=#e3c800;fontColor=#000000;strokeColor=#B09500;" parent="1" vertex="1">
                    <mxGeometry x="80" y="444" width="110" height="40" as="geometry"/>
                </mxCell>
                <mxCell id="65" value="MemoryRouter" style="ellipse;whiteSpace=wrap;html=1;fillColor=#e3c800;fontColor=#000000;strokeColor=#B09500;" parent="1" vertex="1">
                    <mxGeometry x="266" y="449" width="110" height="40" as="geometry"/>
                </mxCell>
                <mxCell id="71" value="&lt;font color=&quot;#0d0d0d&quot; style=&quot;font-size: 18px;&quot;&gt;API GATEWAY&lt;/font&gt;" style="rounded=0;whiteSpace=wrap;html=1;fontSize=24;fillColor=#a20025;strokeColor=#6F0000;fontColor=#ffffff;gradientColor=none;fillStyle=dashed;" parent="1" vertex="1">
                    <mxGeometry x="284" y="688" width="222" height="40" as="geometry"/>
                </mxCell>
                <mxCell id="72" value="" style="endArrow=classic;startArrow=classic;html=1;fontSize=24;exitX=0;exitY=0.5;exitDx=0;exitDy=0;dashed=1;" parent="1" source="71" edge="1">
                    <mxGeometry width="50" height="50" relative="1" as="geometry">
                        <mxPoint x="116" y="579" as="sourcePoint"/>
                        <mxPoint x="166" y="529.0000000000002" as="targetPoint"/>
                        <Array as="points">
                            <mxPoint x="166" y="708"/>
                        </Array>
                    </mxGeometry>
                </mxCell>
                <mxCell id="73" value="" style="endArrow=classic;startArrow=classic;html=1;fontSize=24;dashed=1;entryX=0.633;entryY=1;entryDx=0;entryDy=0;entryPerimeter=0;" parent="1" source="71" target="55" edge="1">
                    <mxGeometry width="50" height="50" relative="1" as="geometry">
                        <mxPoint x="346" y="739" as="sourcePoint"/>
                        <mxPoint x="346" y="529" as="targetPoint"/>
                        <Array as="points"/>
                    </mxGeometry>
                </mxCell>
                <mxCell id="74" value="" style="endArrow=classic;startArrow=classic;html=1;fontSize=24;dashed=1;entryX=1;entryY=0.5;entryDx=0;entryDy=0;exitX=0.838;exitY=1.002;exitDx=0;exitDy=0;exitPerimeter=0;" parent="1" target="71" edge="1">
                    <mxGeometry width="50" height="50" relative="1" as="geometry">
                        <mxPoint x="603.8000000000002" y="529.2000000000003" as="sourcePoint"/>
                        <mxPoint x="736" y="679" as="targetPoint"/>
                        <Array as="points">
                            <mxPoint x="604" y="708"/>
                            <mxPoint x="560" y="708"/>
                        </Array>
                    </mxGeometry>
                </mxCell>
                <mxCell id="76" value="DaFne App&lt;br&gt;localhost:8083" style="rounded=0;whiteSpace=wrap;html=1;fillColor=#1ba1e2;fontColor=#ffffff;strokeColor=#006EAF;" parent="1" vertex="1">
                    <mxGeometry x="500" y="469" width="120" height="60" as="geometry"/>
                </mxCell>
                <mxCell id="77" value="MemoryRouter" style="ellipse;whiteSpace=wrap;html=1;fillColor=#e3c800;fontColor=#000000;strokeColor=#B09500;" parent="1" vertex="1">
                    <mxGeometry x="440" y="444" width="110" height="40" as="geometry"/>
                </mxCell>
            </root>
        </mxGraphModel>
    </diagram>
</mxfile>